<?xml version="1.0" standalone="no"?>
<!DOCTYPE svg PUBLIC "-//W3C//DTD SVG 20010904//EN"
 "http://www.w3.org/TR/2001/REC-SVG-20010904/DTD/svg10.dtd">
<svg version="1.0" xmlns="http://www.w3.org/2000/svg"
 width="512.000000pt" height="512.000000pt" viewBox="0 0 512.000000 512.000000"
 preserveAspectRatio="xMidYMid meet">
<metadata>
Created by potrace 1.11, written by Peter Selinger 2001-2013
</metadata>
<g transform="translate(0.000000,512.000000) scale(0.100000,-0.100000)"
fill="#000000" stroke="none">
<path d="M2260 5056 c-764 -100 -1417 -515 -1833 -1166 -82 -127 -201 -378
-250 -527 -94 -282 -130 -500 -131 -793 -1 -214 8 -309 50 -515 181 -900 879
-1653 1769 -1908 235 -67 419 -92 690 -92 222 0 312 8 500 46 441 88 871 311
1205 623 436 408 705 932 786 1530 18 135 21 444 4 581 -93 787 -531 1467
-1209 1878 -266 162 -550 267 -871 323 -181 32 -538 42 -710 20z m417 -641 c4
-157 6 -152 -67 -145 -33 3 -87 3 -120 0 l-60 -6 0 133 0 134 123 -3 122 -3 2
-110z m-698 -141 c34 -58 61 -108 61 -110 0 -2 -28 -18 -62 -35 -35 -17 -82
-45 -106 -61 -24 -17 -45 -28 -46 -26 -13 14 -128 220 -125 222 14 13 196 116
206 116 6 0 39 -48 72 -106z m1320 50 c53 -31 98 -58 99 -59 3 -3 -87 -168
-117 -214 -7 -11 -17 -8 -52 16 -24 17 -66 42 -94 56 -27 15 -56 30 -63 35
-10 7 2 34 48 115 34 59 66 107 72 107 6 0 54 -25 107 -56z m-599 -309 c391
-59 698 -336 812 -730 20 -69 23 -102 22 -245 0 -151 -2 -173 -27 -254 -43
-139 -83 -234 -200 -471 -194 -394 -242 -531 -260 -740 l-2 -30 -495 0 -495 0
-7 74 c-17 170 -63 294 -266 716 -192 402 -217 482 -217 710 0 176 14 246 77
390 110 251 344 463 603 545 151 48 298 59 455 35z m-1165 -255 c3 -5 -17 -45
-45 -90 -27 -45 -52 -91 -55 -101 -4 -11 -11 -19 -17 -19 -11 0 -168 88 -201
112 -17 13 -15 20 43 120 l61 106 104 -60 c58 -33 107 -63 110 -68z m2305 23
c58 -101 60 -108 43 -121 -33 -24 -190 -112 -201 -112 -6 0 -13 8 -17 19 -3
10 -28 56 -56 101 -35 58 -47 86 -40 93 8 8 175 109 208 126 1 1 29 -47 63
-106z m-2525 -748 l0 -125 -127 0 -128 0 0 125 0 125 128 0 127 0 0 -125z
m2725 0 l0 -125 -127 0 -128 0 0 125 0 125 128 0 127 0 0 -125z m-2566 -626
c26 -60 47 -111 45 -113 -5 -3 -111 -66 -161 -94 l-36 -20 -62 105 c-33 59
-57 110 -53 114 14 13 198 118 208 118 6 1 32 -49 59 -110z m2329 47 c53 -32
97 -59 97 -61 0 -2 -27 -50 -61 -108 l-60 -105 -100 57 c-54 31 -99 59 -99 63
0 4 21 55 47 113 36 82 50 105 63 102 9 -2 60 -30 113 -61z m-815 -1056 c32
-20 62 -71 62 -107 0 -33 -36 -86 -71 -105 -31 -17 -65 -18 -427 -18 -339 0
-399 2 -427 16 -88 41 -95 164 -13 214 32 19 49 20 438 20 389 0 406 -1 438
-20z m9 -376 c15 -12 34 -38 42 -59 13 -32 13 -43 0 -78 -16 -47 -67 -87 -110
-87 -22 0 -31 -8 -49 -45 -32 -67 -101 -132 -178 -168 -59 -28 -77 -32 -152
-32 -74 0 -93 4 -150 31 -76 36 -142 98 -176 166 -20 40 -29 48 -52 48 -40 0
-91 36 -108 76 -17 40 -11 83 14 123 33 49 47 51 484 48 396 -2 407 -3 435
-23z"/>
<path d="M2428 3770 c-214 -39 -408 -174 -519 -361 -61 -102 -91 -204 -97
-330 -8 -185 25 -285 240 -734 114 -237 175 -384 210 -505 l13 -45 275 0 274
0 10 35 c32 120 116 322 236 570 77 157 156 335 177 395 37 107 38 114 38 250
-1 124 -4 149 -27 218 -79 234 -262 412 -503 487 -79 24 -249 35 -327 20z"/>
</g>
</svg>
